<!DOCTYPE svg PUBLIC "-//W3C//DTD SVG 1.1//EN" "http://www.w3.org/Graphics/SVG/1.1/DTD/svg11.dtd">
<!-- Uploaded to: SVG Repo, www.svgrepo.com, Transformed by: SVG Repo Mixer Tools -->
<svg width="800px" height="800px" viewBox="0 0 14 14" role="img" focusable="false" aria-hidden="true" xmlns="http://www.w3.org/2000/svg" fill="#000000">
<g id="SVGRepo_bgCarrier" stroke-width="0"/>
<g id="SVGRepo_tracerCarrier" stroke-linecap="round" stroke-linejoin="round"/>
<g id="SVGRepo_iconCarrier"> <path fill="#d6d6d6" d="M11.2 13H3.4V1h7.8c.66 0 1.2.54 1.2 1.2v9.6c0 .66-.54 1.2-1.2 1.2z"/> <path fill="#1a73e8" d="M2.8 1h.6v12h-.6c-.66 0-1.2-.54-1.2-1.2V2.2c0-.66.54-1.2 1.2-1.2z"/> <g fill="#1a73e8" transform="matrix(.3 0 0 .3 -.2 -.2)"> <circle cx="26" cy="20" r="4"/> <path d="M33 30s-1.9-4-7-4-7 4-7 4v2h14v-2z"/> </g> </g>
</svg>