<!DOCTYPE svg PUBLIC "-//W3C//DTD SVG 1.1//EN" "http://www.w3.org/Graphics/SVG/1.1/DTD/svg11.dtd">
<!-- Uploaded to: SVG Repo, www.svgrepo.com, Transformed by: SVG Repo Mixer Tools -->
<svg version="1.1" id="Capa_1" xmlns="http://www.w3.org/2000/svg" xmlns:xlink="http://www.w3.org/1999/xlink" viewBox="0 0 410 410" xml:space="preserve" width="800px" height="800px" fill="#000000">
<g id="SVGRepo_bgCarrier" stroke-width="0"/>
<g id="SVGRepo_tracerCarrier" stroke-linecap="round" stroke-linejoin="round"/>
<g id="SVGRepo_iconCarrier"> <g id="XMLID_821_"> <polygon id="XMLID_822_" style="fill:#88addd;" points="95,360 95,330 205,330 205,300 95,300 95,270 205,270 205,240 95,240 95,210 205,210 205,180 95,180 95,150 205,150 205,100 65,100 65,410 205,410 205,360 "/> <path id="XMLID_823_" style="fill:#2f82ee;" d="M205,150h50v30h-50v30h50v30h-50v30h50v30h-50v30h50v30h-50v50h140V100H205V150z M285,150h30v30h-30V150z M285,210h30v30h-30V210z M285,270h30v30h-30V270z M285,330h30v30h-30V330z"/> <polygon id="XMLID_829_" style="fill:#1a73e8;" points="285,60 285,80 125,80 125,60 65,60 65,100 205,100 345,100 345,60 "/> <path id="XMLID_830_" style="fill:#000000;" d="M285,80V60V40h-40c0-22.091-17.908-40-40-40s-40,17.909-40,40h-40v20v20H285z"/> <polygon id="XMLID_831_" style="fill:#FFFFFF;" points="95,360 205,360 255,360 255,330 205,330 95,330 "/> <polygon id="XMLID_832_" style="fill:#FFFFFF;" points="95,240 205,240 255,240 255,210 205,210 95,210 "/> <polygon id="XMLID_833_" style="fill:#FFFFFF;" points="95,180 205,180 255,180 255,150 205,150 95,150 "/> <polygon id="XMLID_834_" style="fill:#FFFFFF;" points="95,300 205,300 255,300 255,270 205,270 95,270 "/> <rect id="XMLID_835_" x="285" y="330" style="fill:#FFFFFF;" width="30" height="30"/> <rect id="XMLID_836_" x="285" y="210" style="fill:#d6c400;" width="30" height="30"/> <rect id="XMLID_837_" x="285" y="150" style="fill:#64C37D;" width="30" height="30"/> <rect id="XMLID_838_" x="285" y="270" style="fill:#FFFFFF;" width="30" height="30"/> </g> </g>
</svg>